<svg width="2988" height="931" viewBox="0 0 2988 931" fill="none" xmlns="http://www.w3.org/2000/svg">
<path d="M163.437 790.933L0.358692 735.875L699.467 495.761L862.545 550.819L611.739 636.96L1279.47 862.397L1082.38 930.09L414.647 704.653L163.437 790.933Z" fill="black"/>
<path d="M1627.91 742.722L797.104 462.227L997.022 393.563L1330.48 506.145L1656.41 394.203L1322.95 281.621L1522.46 213.097L2353.27 493.591L2153.76 562.116L1819.89 449.398L1493.96 561.34L1827.83 674.058L1627.91 742.722Z" fill="black"/>
<path d="M2344.04 100.563C2311.6 91.444 2276.49 87.7525 2238.72 89.4884C2200.95 91.0405 2162.55 98.521 2123.51 111.93C2097.66 120.808 2079.5 129.347 2069.03 137.548C2058.56 145.749 2054.96 153.338 2058.25 160.315C2061.26 167.201 2070.21 173.246 2085.08 178.452C2096.98 182.837 2110.36 185.702 2125.21 187.049C2140.33 188.302 2156.79 188.359 2174.59 187.217C2192.4 185.892 2211.54 183.554 2232.03 180.201C2252.51 176.849 2274.21 172.62 2297.11 167.517L2384.42 148.581C2434.27 137.538 2482.25 129.164 2528.36 123.459C2574.74 117.661 2618.84 114.579 2660.66 114.212C2702.76 113.754 2742.71 116.148 2780.52 121.396C2818.34 126.644 2854.01 134.837 2887.54 145.975C2939.74 163.781 2971.58 183.515 2983.05 205.177C2994.53 226.839 2985.77 249.463 2956.78 273.051C2928.06 296.546 2879.23 320.13 2810.3 343.804C2741.11 367.57 2670.38 384.77 2598.13 395.402C2525.88 406.034 2454.25 409.084 2383.25 404.551C2312.25 400.018 2243.9 386.934 2178.18 365.298L2369.62 299.547C2398.01 308.032 2427.45 313.114 2457.96 314.794C2488.46 316.474 2519.35 315.074 2550.62 310.596C2582.17 306.025 2612.61 298.699 2641.96 288.619C2668.89 279.372 2688.12 270.279 2699.67 261.34C2711.48 252.309 2716.01 243.845 2713.26 235.948C2710.51 228.051 2700.89 221.226 2684.39 215.473C2668.44 210.269 2650.2 207.414 2629.69 206.907C2608.91 206.309 2584.63 208.016 2556.87 212.027C2529.1 215.855 2496.62 221.761 2459.43 229.744L2352.72 252.581C2264.6 271.61 2181.55 281.99 2103.58 283.721C2025.33 285.361 1954.83 275.497 1892.09 254.13C1840.44 236.874 1809.14 216.955 1798.2 194.373C1787.26 171.791 1795.47 148.433 1822.84 124.298C1850.21 100.163 1895.26 77.3215 1957.99 55.7746C2022.08 33.7653 2088.63 18.3669 2157.65 9.57949C2226.68 0.60827 2293.85 -1.74266 2359.19 2.52666C2424.52 6.79598 2483.28 17.558 2535.47 34.8126L2344.04 100.563Z" fill="black"/>
</svg>
