<svg width="666" height="208" viewBox="0 0 666 208" fill="none" xmlns="http://www.w3.org/2000/svg">
<path d="M36.849 176.844L0.529702 164.582L156.229 111.106L192.548 123.368L136.691 142.552L285.401 192.76L241.507 207.835L92.7963 157.628L36.849 176.844Z" fill="white"/>
<path d="M363.003 166.107L177.973 103.637L222.497 88.3453L296.762 113.418L369.35 88.4876L295.085 63.4146L339.519 48.1534L524.548 110.623L480.114 125.884L405.759 100.78L333.172 125.711L407.527 150.814L363.003 166.107Z" fill="white"/>
<path d="M522.492 23.091C515.267 21.0601 507.449 20.2379 499.037 20.6245C490.626 20.9702 482.073 22.6362 473.378 25.6225C467.621 27.5997 463.577 29.5015 461.245 31.328C458.913 33.1545 458.112 34.8446 458.844 36.3984C459.515 37.9319 461.507 39.2783 464.82 40.4376C467.471 41.4142 470.45 42.0524 473.757 42.3523C477.124 42.6315 480.79 42.644 484.755 42.3898C488.72 42.0947 492.983 41.5738 497.546 40.8272C502.109 40.0806 506.941 39.1389 512.042 38.0022L531.486 33.7852C542.589 31.3257 553.274 29.4607 563.543 28.19C573.871 26.8988 583.693 26.2124 593.008 26.1308C602.382 26.0286 611.281 26.5619 619.702 27.7307C628.123 28.8994 636.068 30.7241 643.537 33.2048C655.162 37.1703 662.252 41.5653 664.807 46.3896C667.363 51.2139 665.412 56.2527 658.956 61.5058C652.559 66.7384 641.685 71.9909 626.334 77.2633C610.923 82.5563 595.172 86.3868 579.081 88.7547C562.99 91.1226 547.038 91.8019 531.226 90.7924C515.413 89.7829 500.189 86.8688 485.554 82.0502L528.189 67.4069C534.512 69.2965 541.07 70.4284 547.863 70.8025C554.657 71.1766 561.536 70.8649 568.501 69.8675C575.526 68.8495 582.307 67.218 588.843 64.9731C594.839 62.9136 599.123 60.8885 601.695 58.8977C604.326 56.8864 605.335 55.0014 604.723 53.2427C604.11 51.484 601.967 49.964 598.293 48.6826C594.739 47.5237 590.679 46.8879 586.11 46.775C581.482 46.6418 576.075 47.0219 569.891 47.9153C563.706 48.7677 556.473 50.083 548.191 51.8609L524.425 56.947C504.8 61.1849 486.305 63.4966 468.939 63.8822C451.512 64.2473 435.812 62.0506 421.839 57.292C410.335 53.4489 403.364 49.0128 400.928 43.9835C398.491 38.9543 400.32 33.7521 406.416 28.3769C412.511 23.0018 422.544 17.9148 436.516 13.1161C450.788 8.2144 465.61 4.78502 480.982 2.82795C496.355 0.829961 511.316 0.306397 525.866 1.25721C540.416 2.20804 553.503 4.60484 565.127 8.44765L522.492 23.091Z" fill="white"/>
</svg>
