<svg width="2988" height="930" viewBox="0 0 2988 930" fill="none" xmlns="http://www.w3.org/2000/svg">
<path d="M163.437 790.62L0.358692 735.562L699.467 495.448L862.545 550.507L611.739 636.648L1279.47 862.085L1082.38 929.777L414.647 704.34L163.437 790.62Z" fill="white"/>
<path d="M1627.91 742.409L797.104 461.914L997.022 393.251L1330.48 505.832L1656.41 393.89L1322.95 281.309L1522.46 212.784L2353.27 493.279L2153.76 561.803L1819.89 449.085L1493.96 561.027L1827.83 673.746L1627.91 742.409Z" fill="white"/>
<path d="M2344.04 100.251C2311.6 91.1315 2276.49 87.44 2238.72 89.1759C2200.95 90.728 2162.55 98.2085 2123.51 111.618C2097.66 120.495 2079.5 129.035 2069.03 137.236C2058.56 145.437 2054.96 153.026 2058.25 160.003C2061.26 166.888 2070.21 172.934 2085.08 178.139C2096.98 182.524 2110.36 185.39 2125.21 186.736C2140.33 187.99 2156.79 188.046 2174.59 186.905C2192.4 185.58 2211.54 183.241 2232.03 179.889C2252.51 176.536 2274.21 172.308 2297.11 167.204L2384.42 148.269C2434.27 137.226 2482.25 128.851 2528.36 123.146C2574.74 117.348 2618.84 114.266 2660.66 113.9C2702.76 113.441 2742.71 115.836 2780.52 121.084C2818.34 126.331 2854.01 134.525 2887.54 145.663C2939.74 163.469 2971.58 183.203 2983.05 204.865C2994.53 226.526 2985.77 249.151 2956.78 272.738C2928.06 296.233 2879.23 319.818 2810.3 343.491C2741.11 367.258 2670.38 384.457 2598.13 395.089C2525.88 405.722 2454.25 408.771 2383.25 404.239C2312.25 399.706 2243.9 386.621 2178.18 364.985L2369.62 299.235C2398.01 307.719 2427.45 312.802 2457.96 314.481C2488.46 316.161 2519.35 314.762 2550.62 310.283C2582.17 305.712 2612.61 298.387 2641.96 288.307C2668.89 279.059 2688.12 269.966 2699.67 261.028C2711.48 251.997 2716.01 243.533 2713.26 235.636C2710.51 227.739 2700.89 220.914 2684.39 215.16C2668.44 209.957 2650.2 207.102 2629.69 206.595C2608.91 205.997 2584.63 207.703 2556.87 211.715C2529.1 215.543 2496.62 221.448 2459.43 229.431L2352.72 252.268C2264.6 271.297 2181.55 281.677 2103.58 283.408C2025.33 285.048 1954.83 275.184 1892.09 253.818C1840.44 236.562 1809.14 216.643 1798.2 194.061C1787.26 171.479 1795.47 148.12 1822.84 123.985C1850.21 99.8501 1895.26 77.009 1957.99 55.4621C2022.08 33.4528 2088.63 18.0544 2157.65 9.26699C2226.68 0.29577 2293.85 -2.05516 2359.19 2.21416C2424.52 6.48348 2483.28 17.2455 2535.47 34.5001L2344.04 100.251Z" fill="white"/>
</svg>
