<svg width="890" height="890" viewBox="0 0 890 890" fill="none" xmlns="http://www.w3.org/2000/svg">
<rect width="890" height="890" rx="200" fill="black"/>
<path d="M132.849 513.844L96.5297 501.582L252.229 448.106L288.548 460.368L232.691 479.552L381.401 529.759L337.507 544.835L188.796 494.628L132.849 513.844Z" fill="white"/>
<path d="M459.003 503.106L273.973 440.637L318.497 425.345L392.762 450.418L465.35 425.488L391.085 400.414L435.519 385.153L620.548 447.622L576.114 462.884L501.759 437.78L429.172 462.711L503.527 487.814L459.003 503.106Z" fill="white"/>
<path d="M618.492 360.091C611.267 358.06 603.449 357.238 595.037 357.624C586.626 357.97 578.073 359.636 569.378 362.622C563.621 364.6 559.577 366.501 557.245 368.328C554.913 370.154 554.113 371.844 554.844 373.398C555.515 374.932 557.507 376.278 560.82 377.437C563.471 378.414 566.45 379.052 569.757 379.352C573.124 379.631 576.79 379.644 580.755 379.39C584.72 379.095 588.983 378.574 593.546 377.827C598.109 377.08 602.941 376.139 608.042 375.002L627.486 370.785C638.589 368.326 649.274 366.461 659.543 365.19C669.871 363.899 679.693 363.212 689.008 363.131C698.382 363.029 707.281 363.562 715.702 364.731C724.123 365.899 732.068 367.724 739.537 370.205C751.162 374.17 758.252 378.565 760.807 383.39C763.363 388.214 761.412 393.253 754.956 398.506C748.559 403.738 737.685 408.991 722.334 414.263C706.923 419.556 691.172 423.387 675.081 425.755C658.99 428.123 643.038 428.802 627.226 427.792C611.413 426.783 596.189 423.869 581.554 419.05L624.189 404.407C630.512 406.296 637.07 407.428 643.863 407.802C650.657 408.176 657.536 407.865 664.501 406.867C671.526 405.849 678.307 404.218 684.843 401.973C690.839 399.913 695.123 397.888 697.695 395.898C700.326 393.886 701.335 392.001 700.723 390.243C700.11 388.484 697.967 386.964 694.293 385.682C690.739 384.524 686.679 383.888 682.11 383.775C677.482 383.642 672.075 384.022 665.891 384.915C659.706 385.768 652.473 387.083 644.191 388.861L620.425 393.947C600.8 398.185 582.305 400.496 564.939 400.882C547.512 401.247 531.812 399.051 517.839 394.292C506.335 390.449 499.364 386.013 496.928 380.983C494.491 375.954 496.32 370.752 502.416 365.377C508.511 360.002 518.544 354.915 532.516 350.116C546.788 345.214 561.61 341.785 576.982 339.828C592.355 337.83 607.316 337.306 621.866 338.257C636.416 339.208 649.503 341.605 661.127 345.448L618.492 360.091Z" fill="white"/>
</svg>
